<?xml version="1.0" encoding="UTF-8" standalone="no"?>
<svg
   xmlns:dc="http://purl.org/dc/elements/1.1/"
   xmlns:cc="http://creativecommons.org/ns#"
   xmlns:rdf="http://www.w3.org/1999/02/22-rdf-syntax-ns#"
   xmlns:svg="http://www.w3.org/2000/svg"
   xmlns="http://www.w3.org/2000/svg"
   viewBox="0 0 500 500"
   height="500"
   width="500"
   id="svg194"
   version="1.1">
  <metadata
     id="metadata200">
    <rdf:RDF>
      <cc:Work
         rdf:about="">
        <dc:format>image/svg+xml</dc:format>
        <dc:type
           rdf:resource="http://purl.org/dc/dcmitype/StillImage" />
        <dc:title></dc:title>
      </cc:Work>
    </rdf:RDF>
  </metadata>
  <defs
     id="defs198" />
  <circle
     r="250"
     cy="250"
     cx="250"
     id="path208"
     style="fill:#f7931a;fill-opacity:1;stroke:none;stroke-width:2.01664281;stroke-miterlimit:4;stroke-dasharray:none;stroke-opacity:1" />
  <path
     id="path206"
     d="m 242.71085,90.008479 c -0.11731,0.01 -0.23028,-0.03731 -0.45824,0.1807 -0.18929,0.181095 -0.16337,0.228554 -0.21196,0.34176 -0.0486,0.113207 -0.10036,0.253437 -0.1615,0.426218 -0.12231,0.345562 -0.27609,0.822299 -0.46027,1.420072 -0.36836,1.195546 -0.85673,2.875134 -1.43126,4.922131 -1.14906,4.09399 -2.643,9.6508 -4.20699,15.68757 l -5.5575,21.45428 -25.3388,-6.28131 c -7.10927,-1.76235 -13.88636,-3.36682 -19.08283,-4.53323 -2.59824,-0.58321 -4.8017,-1.05726 -6.45584,-1.38668 -1.65413,-0.32944 -2.68033,-0.52005 -3.22589,-0.52443 -0.74378,-0.006 -1.35065,-0.12481 -2.00054,0.13357 -0.64988,0.25837 -1.11672,0.87304 -1.58065,1.99163 -0.92783,2.23718 -2.0367,6.8135 -4.55016,16.64803 -0.88836,3.47588 -1.49633,6.29178 -1.80472,8.33581 -0.1542,1.02201 -0.23475,1.84929 -0.23418,2.48856 3e-4,0.31964 0.0189,0.5927 0.0686,0.83279 0.0497,0.2401 0.11815,0.46065 0.31895,0.65602 0.16874,0.16416 0.33063,0.2361 0.55718,0.34177 0.22655,0.10567 0.50586,0.21972 0.84179,0.34372 0.67186,0.248 1.56266,0.53744 2.61625,0.85244 2.10718,0.62999 4.86662,1.3622 7.78009,2.04859 2.89428,0.68187 5.8612,1.46972 8.30295,2.18805 2.44174,0.71834 4.39101,1.38761 5.11136,1.75005 4.41652,2.22213 7.00895,6.05842 7.00895,10.2587 0,0.0302 -0.0237,0.26618 -0.0788,0.58923 -0.0551,0.32306 -0.13923,0.75753 -0.2483,1.29045 -0.21815,1.06582 -0.53852,2.53023 -0.9488,4.33288 -0.82053,3.60531 -1.99632,8.56476 -3.41363,14.43053 -2.83459,11.73154 -6.63756,27.08406 -10.50534,42.47055 -3.86779,15.38651 -7.80092,30.80747 -10.899,42.6768 -1.54904,5.93467 -2.88813,10.98284 -3.9062,14.69176 -0.50904,1.85446 -0.93864,3.37474 -1.27179,4.5018 -0.33314,1.12706 -0.58648,1.88925 -0.68434,2.10949 -0.45871,1.03229 -2.11832,2.83658 -3.52264,3.73185 -1.29253,0.824 -1.88668,1.15803 -3.51861,1.08225 -1.63193,-0.0758 -4.28688,-0.63772 -9.30826,-1.7638 -5.77548,-1.29518 -11.64386,-2.54136 -13.166,-2.78711 -0.65573,-0.10588 -1.30554,-0.15202 -1.94402,0.1591 -0.63848,0.31111 -1.18608,0.91296 -1.835,1.94057 -1.29785,2.05521 -3.04964,5.93235 -6.34075,13.3365 -1.90415,4.28378 -3.63528,8.29993 -4.89134,11.32129 -0.62802,1.51068 -1.13757,2.7718 -1.49182,3.69847 -0.17713,0.46333 -0.3153,0.84335 -0.41181,1.13331 -0.0483,0.14496 -0.0852,0.26596 -0.11306,0.37122 -0.0279,0.10525 -0.0525,0.17189 -0.0525,0.31622 0,0.12841 -0.0259,0.31887 0.0606,0.56764 0.0865,0.24876 0.29284,0.47263 0.56928,0.6462 0.55286,0.34715 1.47633,0.66494 3.40556,1.20598 3.85845,1.08208 11.69079,2.97395 27.7128,6.86073 6.48511,1.57323 12.4338,3.14055 16.78756,4.39378 2.17689,0.62662 3.9567,1.17537 5.19616,1.60471 0.61972,0.21466 1.10573,0.40039 1.42723,0.54406 0.13831,0.0618 0.22884,0.11013 0.29675,0.14927 -0.002,0.0851 -0.0112,0.20024 -0.0283,0.35355 -0.0369,0.33046 -0.10897,0.79907 -0.21196,1.37883 -0.20599,1.15952 -0.53608,2.76937 -0.96495,4.70804 -0.85772,3.87733 -2.10727,9.06813 -3.54081,14.62693 -1.43551,5.56641 -2.74171,10.83463 -3.68817,14.84103 -0.47324,2.0032 -0.85623,3.68926 -1.12241,4.94374 -0.13308,0.62723 -0.23551,1.14643 -0.30684,1.54578 -0.0713,0.39934 -0.11507,0.64894 -0.11507,0.8701 0,0.51175 0.24784,1.04181 0.74289,1.45346 0.49505,0.41167 1.21463,0.76399 2.29325,1.15689 2.15723,0.78577 5.77119,1.71387 11.80136,3.13869 3.97886,0.94013 7.6668,1.7225 10.41451,2.2293 1.37385,0.25339 2.51054,0.43772 3.34096,0.53817 0.41522,0.0502 0.75224,0.0809 1.01944,0.0864 0.13361,0.003 0.2499,-5.2e-4 0.3654,-0.0157 0.11548,-0.0152 0.24095,0.001 0.43603,-0.18855 0.17982,-0.17496 0.15802,-0.22466 0.20591,-0.33587 0.0478,-0.1112 0.0997,-0.24784 0.15948,-0.41639 0.11953,-0.33712 0.26922,-0.79983 0.44815,-1.38079 0.35786,-1.16195 0.83095,-2.79306 1.38686,-4.77875 1.11182,-3.97139 2.55399,-9.35867 4.06164,-15.20636 1.5064,-5.8429 2.92949,-11.20557 4.00713,-15.13761 0.53881,-1.96603 0.99129,-3.57548 1.32427,-4.70412 0.16649,-0.5643 0.30293,-1.00929 0.40373,-1.31401 0.0443,-0.13385 0.0772,-0.22912 0.10498,-0.30247 0.001,0.004 0.006,0.009 0.0424,0.006 0.14157,-0.0127 0.36798,-0.0101 0.65003,0.0118 0.56409,0.0432 1.35236,0.16103 2.27306,0.33587 1.84138,0.34967 4.22342,0.92431 6.57089,1.56934 2.34746,0.64503 4.66447,1.36237 6.37911,1.98968 0.85732,0.31364 1.56552,0.60708 2.03486,0.84653 0.23287,0.11883 0.40725,0.22658 0.4966,0.2966 -0.009,0.0545 -0.0244,0.19122 -0.0807,0.47924 -0.0694,0.3541 -0.17316,0.84078 -0.30685,1.44168 -0.26739,1.2018 -0.6558,2.86103 -1.13451,4.85339 -0.95744,3.98469 -2.27695,9.30453 -3.73057,14.99619 -1.7702,6.9312 -3.00966,12.19704 -3.72048,15.82703 -0.35541,1.81499 -0.57777,3.21871 -0.67021,4.23468 -0.0462,0.50798 -0.0607,0.91768 -0.0364,1.25115 0.0244,0.33348 0.0312,0.60591 0.31088,0.87797 0.17089,0.16627 0.33769,0.24411 0.57534,0.35748 0.23764,0.11336 0.53494,0.23712 0.89025,0.37318 0.71059,0.27214 1.65364,0.59208 2.77168,0.94476 2.23608,0.70534 5.16645,1.53674 8.26257,2.32554 3.09879,0.78947 6.26201,1.48424 8.87221,1.97198 2.6102,0.48775 4.59969,0.78082 5.61605,0.72085 l 3.48024,-0.20624 5.67862,-21.97871 c 1.53651,-5.94476 2.96452,-11.3862 4.02733,-15.36544 0.5314,-1.98963 0.97178,-3.61527 1.28793,-4.75125 0.15809,-0.568 0.2863,-1.01369 0.3775,-1.31991 0.0235,-0.0786 0.0361,-0.11928 0.0545,-0.17874 0.17469,0.002 0.41377,0.0121 0.73482,0.0334 0.69322,0.0461 1.69054,0.13579 2.91097,0.26122 2.44086,0.25088 5.77707,0.64537 9.41121,1.12153 18.68318,2.44791 38.38579,1.74392 48.89712,-1.83058 10.01358,-3.40525 15.98307,-6.93895 22.49243,-13.32078 7.17682,-7.03623 12.58148,-16.23491 16.46054,-27.97326 4.4365,-13.42518 5.13556,-25.18566 2.01264,-35.36431 -3.1229,-10.17864 -10.06935,-18.74315 -20.79873,-25.77342 l -4.65715,-3.05227 5.92288,-2.69873 c 13.17951,-6.00072 21.58544,-16.57748 25.71631,-32.2924 3.82247,-14.54174 1.95002,-27.53373 -5.52722,-38.69548 -7.47725,-11.16174 -20.51662,-20.48264 -38.96307,-27.85345 -2.91179,-1.16348 -5.55966,-2.31499 -7.46921,-3.22904 -0.95478,-0.45702 -1.72602,-0.85623 -2.24278,-1.15884 -0.25775,-0.15093 -0.45162,-0.28162 -0.5612,-0.36729 0.0162,-0.0865 0.038,-0.19518 0.0686,-0.33783 0.0679,-0.31689 0.16997,-0.76276 0.30078,-1.3199 0.26162,-1.11429 0.64021,-2.67385 1.10827,-4.56466 0.93612,-3.78162 2.22697,-8.88568 3.64781,-14.39517 1.42193,-5.51383 2.71605,-10.74302 3.65385,-14.73103 0.4689,-1.99401 0.84852,-3.6782 1.11231,-4.93392 0.1319,-0.62786 0.23412,-1.14685 0.30482,-1.54971 0.0707,-0.40286 0.11305,-0.66168 0.11305,-0.88386 0,-0.47149 -0.13023,-0.9469 -0.44209,-1.35329 -0.31187,-0.40638 -0.77413,-0.73819 -1.41108,-1.05671 -1.27391,-0.63702 -3.28879,-1.24131 -6.54061,-2.08002 -5.80128,-1.49628 -11.0041,-2.66677 -14.86172,-3.37439 -1.92881,-0.35381 -3.5193,-0.59197 -4.69551,-0.69727 -0.58811,-0.0527 -1.07181,-0.0746 -1.45953,-0.055 -0.38772,0.0196 -0.68495,5.9e-4 -1.00128,0.30838 -0.17028,0.16568 -0.15492,0.21887 -0.20187,0.32604 -0.0469,0.10718 -0.0981,0.23679 -0.15544,0.39676 -0.11472,0.31994 -0.25656,0.75669 -0.42594,1.30419 -0.33878,1.09498 -0.78453,2.63026 -1.30611,4.4959 -1.04317,3.7313 -2.39004,8.78574 -3.79314,14.26948 -1.40218,5.48006 -2.72341,10.59117 -3.72048,14.40891 -0.49854,1.90887 -0.91658,3.49469 -1.22334,4.64126 -0.28513,1.06568 -0.4638,1.69006 -0.50871,1.83647 -0.0908,0.0218 -0.24386,0.0474 -0.46229,0.0569 -0.47302,0.0206 -1.1794,-0.012 -2.02274,-0.0923 -1.68669,-0.16068 -3.93917,-0.50661 -6.23377,-0.94081 -2.29459,-0.43424 -4.63314,-0.9589 -6.49822,-1.47115 -0.93254,-0.25612 -1.74853,-0.50814 -2.37198,-0.74245 -0.57641,-0.21662 -0.94194,-0.42591 -1.08606,-0.53424 -0.005,-0.0603 -0.009,-0.12887 -0.006,-0.24552 0.008,-0.29486 0.0501,-0.73938 0.12717,-1.30026 0.15405,-1.12175 0.44308,-2.71852 0.84584,-4.68053 0.80554,-3.92404 2.06552,-9.31304 3.61955,-15.37331 1.4975,-5.83987 2.79429,-11.21193 3.67808,-15.16708 0.44189,-1.97759 0.78134,-3.59875 0.99118,-4.75518 0.10492,-0.578222 0.17817,-1.039526 0.21601,-1.380792 0.0189,-0.170633 0.029,-0.31033 0.0282,-0.436039 -3.9e-4,-0.06285 -0.003,-0.119651 -0.0161,-0.192485 -0.0131,-0.07284 -0.008,-0.172621 -0.16554,-0.326047 -0.21163,-0.205915 -0.37619,-0.24627 -0.64397,-0.353546 -0.26777,-0.107273 -0.60998,-0.226145 -1.02549,-0.359436 -0.83106,-0.266584 -1.949,-0.588443 -3.26829,-0.944751 -2.63859,-0.712618 -6.07532,-1.565155 -9.55051,-2.380536 -3.47519,-0.815381 -6.98813,-1.593227 -9.77659,-2.156623 -1.39424,-0.281699 -2.60727,-0.509263 -3.54889,-0.661915 -0.94162,-0.152652 -1.54785,-0.244111 -1.99045,-0.206234 z m 11.02611,87.129171 c 0.002,9e-5 0.002,-9e-5 0.004,0 0.67528,0.0283 2.71995,0.41799 5.3637,1.03314 2.64376,0.61514 5.94562,1.45273 9.37084,2.37071 6.85045,1.83598 14.20941,4.00312 17.74645,5.34442 9.24562,3.50609 15.94016,7.95524 19.97107,13.12045 4.03092,5.16521 5.43242,11.03562 4.08788,17.54957 -1.97245,9.55608 -7.50809,15.3567 -16.76132,17.59475 -6.69075,1.61826 -13.86688,1.97582 -21.82626,1.07634 -3.96506,-0.44807 -11.4917,-1.82114 -18.12395,-3.19958 -3.31612,-0.68921 -6.41471,-1.381 -8.73696,-1.95824 -1.16113,-0.28862 -2.12854,-0.54745 -2.82619,-0.76208 -0.34883,-0.10732 -0.63147,-0.20467 -0.82767,-0.28284 -0.0731,-0.0291 -0.0472,-0.0155 -0.0949,-0.0412 0.0103,-0.0855 0.0189,-0.16194 0.0404,-0.29462 0.0625,-0.38737 0.16983,-0.95684 0.31693,-1.6754 0.29419,-1.43716 0.74429,-3.47429 1.30005,-5.90813 1.11151,-4.8677 2.64807,-11.32777 4.22717,-17.80492 1.57911,-6.47715 3.20075,-12.97232 4.47951,-17.90902 0.63938,-2.46834 1.19358,-4.54624 1.61295,-6.03579 0.20967,-0.74478 0.38619,-1.34346 0.52082,-1.7638 0.0624,-0.19497 0.11376,-0.34261 0.15544,-0.45371 z m -21.05511,82.69611 10.02691,2.26858 c 33.20648,7.51371 51.30709,16.81002 57.18795,28.98283 1.87272,3.87624 2.17102,5.75561 1.77041,11.20344 -0.8616,11.71645 -7.1374,18.9985 -19.03439,22.07888 -6.76601,1.75189 -23.44644,1.76522 -33.6357,-0.0314 -6.71412,-1.1839 -14.5161,-2.84983 -20.62916,-4.327 -3.05653,-0.73858 -5.69221,-1.42933 -7.55198,-1.98771 -0.92989,-0.27918 -1.66785,-0.52592 -2.15194,-0.72083 -0.20209,-0.0814 -0.32846,-0.14649 -0.42796,-0.20034 0.022,-0.10506 0.0466,-0.22567 0.0848,-0.3948 0.0904,-0.40061 0.22472,-0.97123 0.39566,-1.6872 0.34189,-1.43192 0.83315,-3.4455 1.42723,-5.85902 1.18816,-4.82704 2.78872,-11.25464 4.44115,-17.8383 3.30488,-13.16732 6.82272,-26.98965 7.62668,-29.82544 z"
     style="color:#000000;font-style:normal;font-variant:normal;font-weight:normal;font-stretch:normal;font-size:medium;line-height:normal;font-family:sans-serif;font-variant-ligatures:normal;font-variant-position:normal;font-variant-caps:normal;font-variant-numeric:normal;font-variant-alternates:normal;font-feature-settings:normal;text-indent:0;text-align:start;text-decoration:none;text-decoration-line:none;text-decoration-style:solid;text-decoration-color:#000000;letter-spacing:normal;word-spacing:normal;text-transform:none;writing-mode:lr-tb;direction:ltr;text-orientation:mixed;dominant-baseline:auto;baseline-shift:baseline;text-anchor:start;white-space:normal;shape-padding:0;clip-rule:nonzero;display:inline;overflow:visible;visibility:visible;opacity:1;isolation:auto;mix-blend-mode:normal;color-interpolation:sRGB;color-interpolation-filters:linearRGB;solid-color:#000000;solid-opacity:1;vector-effect:none;fill:#ffffff;fill-opacity:1;fill-rule:nonzero;stroke:none;stroke-width:1.01951253;stroke-linecap:butt;stroke-linejoin:miter;stroke-miterlimit:4;stroke-dasharray:none;stroke-dashoffset:0;stroke-opacity:1;color-rendering:auto;image-rendering:auto;shape-rendering:auto;text-rendering:auto;enable-background:accumulate" />
</svg>
