<?xml version="1.0" encoding="utf-8"?>
<!-- Generator: Adobe Illustrator 21.0.2, SVG Export Plug-In . SVG Version: 6.00 Build 0)  -->
<svg version="1.1" id="_x31_" xmlns="http://www.w3.org/2000/svg" xmlns:xlink="http://www.w3.org/1999/xlink" x="0px" y="0px"
	 viewBox="0 0 248.3 58.3" style="enable-background:new 0 0 248.3 58.3;" xml:space="preserve">
<style type="text/css">
	.st0{fill-rule:evenodd;clip-rule:evenodd;fill:#EF7C00;}
	.st1{fill-rule:evenodd;clip-rule:evenodd;fill:#484857;}
</style>
<g>
	<path class="st0" d="M20.5,43.8l-2.5,14.6H0L10.2,0h21.3C37.4,0,43,1.6,47.4,5.6c4.3,4,6.2,9.2,6.2,15c0,6.6-2.3,12.4-7.4,16.8
		c-4.7,4-10.5,5.6-16.5,6c0.4-0.6,1.6-4.4,2.8-4.8l0.6-0.2c1.2-0.5,1.2,0,2.1-0.5c0.6-0.4,0.5-0.8,0.9-1.6c0.4-1,0.4-0.4,0.4-1.4
		c0-0.6,0.1-1.2,0.2-1.7c0.2-1.5,4.1-2.8,5.4-3.5c1.4-0.8,2.8-2.1,3.3-3.7c-3.3-0.7-3.1-0.8-3.9-2.1c-0.3-0.5-0.9-1.1-1-1.5
		c-0.1-0.4,0-0.4-0.1-0.8c-0.1-0.8-0.1-0.3-0.3-0.8c-0.4-0.8,0.2-1-0.1-1.9c-0.4-1-0.6-2.4-0.7-3.4c0.6-0.2,0.2,0.6,0.7-0.3
		c0.8-1.7-2.4-1.8-2.4-1.8c-0.7-0.3-1.7-1-2.1-1.4c-1.4-1.3-1.3-0.1-1.9,0.4c-0.7,0.7-5-2.6-3.4-3.2c0.6-0.3,1.3-1,0.5-1.5
		c-0.5-0.3-3.4-1.1-4.4-1c-1.2,0.1-1.2-0.2-2.1-1c-2.1,1.4-1.7,0.1-3,1.8c-0.9,1.2-4.4,0.4-5.4,3.8c-0.4,1.4-0.9,1.4-1.3,2
		c-0.2,0.3-0.2,0.5-0.3,0.9c0,0.1-0.2,0.5-0.3,0.6c1.1,1.2,0.7,2.2,1,2.9c1.9,4.9,6.8,1.5,8.2,4.8c2.4,0.7,1.4,0.9,1,2.2
		c-0.3,0.9-0.6,0.4-0.6,1.1c0.2,2.1,2,4.3-0.1,6.2c-2,1.8-1,3-0.9,4.4C22.3,38.6,20.5,42.2,20.5,43.8z"/>
	<path class="st0" d="M35.1,51.8c2.2,1.7,3.2-0.2,6.2-3.2l2.9-3.5c0.9-1,1.1-1.9,1.1-3.5l-1.7,0.8c-0.5,0.3-0.9,0.7-1.4,1
		c-1.7,0.9-2.6-0.9-3.7,0.9c-1.3,2.2,0.4,1.6-2.2,3.5C35.3,48.6,34.9,50.7,35.1,51.8z"/>
</g>
<path class="st1" d="M79.8,36.6c6.7,0,10.6-3,11.7-9l0.2-1.2c0.1-0.8,0.2-1.6,0.2-2.4c0-2.1-0.8-4-2.2-5.6C88.2,16.8,86,16,83.2,16
	H73L68.4,46c0,0.4,0.1,0.6,0.5,0.6h4.7c0.4,0,0.6-0.2,0.7-0.6l1.5-9.4H79.8L79.8,36.6z M85.7,27.3c-0.5,2.9-2,4.1-5.7,4.1h-3.4
	l1.6-10.1h4.2c2.4,0,3.7,1.4,3.7,3.2c0,0.5-0.1,1.1-0.2,1.9L85.7,27.3L85.7,27.3z M99.6,32.1c0.3-2.5,2.1-4.3,4.8-4.3
	c2,0,3,1.3,3,3.2c0,0.4-0.1,1.1-0.3,2.2h-7.6L99.6,32.1L99.6,32.1z M110.9,41.9c0.4-0.9,0.3-1.4-0.2-1.6l-3.1-1.3
	c-0.6-0.3-1.1-0.1-1.3,0.5c-0.8,1.9-2.2,2.9-4.3,2.9c-2,0-3.4-1.4-3.4-3.2c0-0.5,0.1-1.2,0.3-2.1h12.2c0.8,0,1.2-0.3,1.3-0.9
	c0.5-2.7,0.7-4.6,0.7-5.7c0-1.9-0.8-3.5-2.3-4.9c-1.6-1.4-3.6-2.1-6.1-2.1c-6.2,0-9.9,3.4-10.8,8.8l-0.8,5c-0.2,1-0.3,1.8-0.3,2.6
	c0,2,0.8,3.7,2.2,5.2c1.5,1.4,3.6,2.1,6.2,2.1C106,47.1,109.3,45.3,110.9,41.9L110.9,41.9z M119.2,39.6c-0.2-0.6-0.6-0.8-1.2-0.5
	l-2.8,1c-0.5,0.2-0.8,0.8-0.5,1.5c1.3,3.1,4.1,5.5,8.9,5.5c2.5,0,4.5-0.7,6.1-2.1c1.6-1.4,2.4-3.1,2.4-5c0-2.8-1.7-5-5.2-6.5
	c-3.6-1.6-4.6-2.3-4.6-3.6c0-1.2,0.9-2.1,2.7-2.1c1.7,0,2.9,0.7,3.4,2.1c0.2,0.5,0.5,0.6,1,0.4l2.9-1.1c0.5-0.2,0.7-0.5,0.5-1.1
	c-0.9-2.6-3.7-4.8-7.9-4.8c-2.4,0-4.4,0.6-5.9,1.9c-1.5,1.3-2.3,2.9-2.3,5c0,2.8,1.7,4.9,5.1,6.4l0.8,0.4c1.6,0.7,2.6,1.3,3.1,1.6
	c0.5,0.4,0.8,0.9,0.8,1.6c0,1.3-1.1,2.2-3,2.2C121.3,42.4,119.8,41.2,119.2,39.6L119.2,39.6z M149.3,38c-1.4,2.7-3.7,4.4-5.9,4.4
	c-1.9,0-2.9-1.1-2.9-2.9c0-0.7,0-1.4,0.2-2.1l0.6-4.1c0.6-4,2.4-5.5,5.2-5.5c1.1,0,2.6,0.3,4.3,0.9L149.3,38L149.3,38z M146.8,23.3
	c-6.4,0-10.1,2.9-11,8.7l-0.9,5.5c-0.1,0.7-0.2,1.7-0.2,2.9c0,1.6,0.5,3.2,1.6,4.5c1.1,1.3,2.7,2,4.7,2c2,0,3.6-0.5,4.9-1.4
	c1.3-1,2.3-2,2.9-3.2l-0.4,3c-0.1,0.7,0.2,1.1,0.7,1.1h3.9c0.5,0,0.8-0.3,0.9-0.8l3.1-19.5C153.5,24.3,150.1,23.3,146.8,23.3
	L146.8,23.3z M169.6,42.3c-2.6,0-3.9-1.1-3.9-3.1c0-0.5,0-1.2,0.2-1.9l0.6-4c0.5-3,2.7-5.3,5.3-5.3c2.5,0,3.7,1.1,3.7,3.2
	c0,0.4,0,1-0.2,1.8l-0.7,4.5C174.1,41.2,172.4,42.3,169.6,42.3L169.6,42.3z M159.9,39.8c0,2,0.8,3.7,2.4,5.1
	c1.6,1.4,3.8,2.1,6.4,2.1c6.9,0,10.6-2.7,11.5-8.7l0.9-6c0.1-0.8,0.2-1.5,0.2-2.2c0-1.9-0.6-3.5-1.9-4.8c-1.3-1.4-2.9-2.1-5-2.1
	c-2.9,0-5.3,1.3-7.1,3.8l1.8-11.3c0-0.3-0.1-0.5-0.5-0.5H164c-0.4,0-0.6,0.2-0.6,0.5l-3.3,21.5C159.9,37.8,159.9,38.7,159.9,39.8
	L159.9,39.8z M198.8,38c-1.4,2.7-3.7,4.4-5.9,4.4c-1.9,0-2.9-1.1-2.9-2.9c0-0.7,0-1.4,0.2-2.1l0.6-4.1c0.6-4,2.4-5.5,5.2-5.5
	c1.1,0,2.6,0.3,4.3,0.9L198.8,38L198.8,38z M196.2,23.3c-6.4,0-10.1,2.9-11,8.7l-0.9,5.5c-0.1,0.7-0.2,1.7-0.2,2.9
	c0,1.6,0.5,3.2,1.6,4.5c1.1,1.3,2.7,2,4.7,2c2,0,3.6-0.5,4.9-1.4c1.3-1,2.3-2,2.9-3.2l-0.4,3c-0.1,0.7,0.2,1.1,0.7,1.1h3.9
	c0.5,0,0.8-0.3,0.9-0.8l3.1-19.5C203,24.3,199.6,23.3,196.2,23.3L196.2,23.3z M212.4,39.6c-0.2-0.6-0.6-0.8-1.2-0.5l-2.8,1
	c-0.5,0.2-0.8,0.8-0.5,1.5c1.3,3.1,4.1,5.5,8.9,5.5c2.5,0,4.5-0.7,6.1-2.1c1.6-1.4,2.4-3.1,2.4-5c0-2.8-1.7-5-5.2-6.5
	c-3.6-1.6-4.6-2.3-4.6-3.6c0-1.2,0.9-2.1,2.7-2.1c1.7,0,2.9,0.7,3.4,2.1c0.2,0.5,0.5,0.6,1,0.4l2.9-1.1c0.5-0.2,0.7-0.5,0.5-1.1
	c-0.9-2.6-3.7-4.8-7.9-4.8c-2.4,0-4.4,0.6-5.9,1.9c-1.5,1.3-2.3,2.9-2.3,5c0,2.8,1.7,4.9,5.1,6.4L216,37c1.6,0.7,2.6,1.3,3.1,1.6
	c0.5,0.4,0.8,0.9,0.8,1.6c0,1.3-1.1,2.2-3,2.2C214.6,42.4,213.1,41.2,212.4,39.6L212.4,39.6z M234.8,32.1c0.3-2.5,2.1-4.3,4.8-4.3
	c2,0,3,1.3,3,3.2c0,0.4-0.1,1.1-0.3,2.2h-7.6L234.8,32.1L234.8,32.1z M246.2,41.9c0.4-0.9,0.3-1.4-0.2-1.6l-3.1-1.3
	c-0.6-0.3-1.1-0.1-1.3,0.5c-0.8,1.9-2.2,2.9-4.3,2.9c-2,0-3.4-1.4-3.4-3.2c0-0.5,0.1-1.2,0.3-2.1h12.2c0.8,0,1.2-0.3,1.3-0.9
	c0.5-2.7,0.7-4.6,0.7-5.7c0-1.9-0.8-3.5-2.3-4.9c-1.6-1.4-3.6-2.1-6.1-2.1c-6.2,0-9.9,3.4-10.8,8.8l-0.8,5c-0.2,1-0.3,1.8-0.3,2.6
	c0,2,0.8,3.7,2.2,5.2c1.5,1.4,3.6,2.1,6.2,2.1C241.2,47.1,244.5,45.3,246.2,41.9z"/>
</svg>
