<?xml version="1.0" encoding="iso-8859-1"?>
<!-- Generator: Adobe Illustrator 19.0.0, SVG Export Plug-In . SVG Version: 6.00 Build 0)  -->
<svg version="1.1" id="Capa_1" xmlns="http://www.w3.org/2000/svg" xmlns:xlink="http://www.w3.org/1999/xlink" x="0px" y="0px"
	 viewBox="0 0 480 480" style="enable-background:new 0 0 480 480;" xml:space="preserve">
<g>
	<g>
		<path d="M232.504,253.192c1.144-3.024,4.072-5.192,7.496-5.192c4.408,0,8,3.592,8,8h16c0-10.416-6.712-19.216-16-22.528V224h-16
			v9.472c-9.288,3.312-16,12.112-16,22.528c0,2.12,0.84,4.16,2.344,5.656l29.152,29.152C246.352,293.832,243.424,296,240,296
			c-4.408,0-8-3.592-8-8h-16c0,10.416,6.712,19.216,16,22.528V320h16v-9.472c9.288-3.312,16-12.112,16-22.528
			c0-2.12-0.84-4.16-2.344-5.656L232.504,253.192z"/>
	</g>
</g>
<g>
	<g>
		<path d="M392,0H88c-4.416,0-8,3.584-8,8v160c0,4.416,3.584,8,8,8h304c4.416,0,8-3.584,8-8V8C400,3.584,396.416,0,392,0z M96,16
			h26.376L96,38.608V16z M96,59.68L146.96,16h23.2L96,78.752V59.68z M384,160H96V99.712L194.928,16H384V160z"/>
	</g>
</g>
<g>
	<g>
		<path d="M376,192h-30.528H134.528H104c-4.416,0-8,3.584-8,8v30.528V256H72c-1.24,0-2.472,0.288-3.576,0.84L6.112,288H0v16h8
			c1.24,0,2.472-0.288,3.576-0.84L73.888,272H104h32.48c4.496,0,8.52,2.136,11.04,5.856c2.52,3.728,3.008,8.256,1.344,12.432
			c-1.68,4.2-5.336,7.24-9.776,8.128l-28.32,5.664c-3.096,0.152-6.256,0.704-9.456,1.848c-0.048,0.016-0.08,0.056-0.128,0.072
			l-30.76,6.152l3.144,15.688L96,323.36V344c0,4.416,3.584,8,8,8h30.528h49.736l-73.408,39.528L9.8,368.2
			C9.208,368.072,8.608,368,8,368H0v16h7.088L110.2,407.8c0.6,0.136,1.2,0.2,1.8,0.2c1.32,0,2.616-0.328,3.792-0.96L218.016,352
			h127.456H376c4.416,0,8-3.584,8-8v-30.528v-82.944V200C384,195.584,380.416,192,376,192z M112,336v-15.84l0.528-0.104
			C121.104,320.344,128,327.36,128,336H112z M112,208h16c0,8.824-7.176,16-16,16V208z M368,336h-16c0-8.824,7.176-16,16-16V336z
			 M368,304.04c-17.528-0.2-32,14.288-32,31.96H216h-72c0-7.864-2.896-15.112-7.648-20.712l5.88-1.176
			c2.44-0.488,4.768-1.272,6.952-2.312c6.552-3.136,11.76-8.624,14.536-15.552c0.656-1.64,0.976-3.336,1.328-5.032
			c1.576-7.672,0.208-15.696-4.272-22.312C155.312,260.824,146.232,256,136.48,256H112v-16c17.648,0,32-14.352,32-32h192
			c0,17.648,14.352,32,32,32V304.04z M368,224c-8.824,0-16-7.176-16-16h16V224z"/>
	</g>
</g>
<g>
	<g>
		<path d="M368,384h80c1.576,0,3.128-0.472,4.44-1.344L474.424,368H480v-16h-8c-1.576,0-3.128,0.472-4.44,1.344L445.576,368H368
			c-10.296,0-19.952,4.568-26.48,12.528c-4.968,6.056-7.616,13.496-7.728,21.152l-59.472-30.888
			c-0.472-0.248-0.976-0.448-1.488-0.592c-6.208-1.784-12.816-1.168-18.608,1.728C245.456,376.336,240,385.16,240,394.976v2.048
			c0,9.816,5.456,18.648,14.24,23.04l118.184,59.088c1.112,0.56,2.344,0.848,3.576,0.848c0.44,0,0.88-0.032,1.32-0.112L472.664,464
			H480v-16h-8c-0.44,0-0.88,0.032-1.32,0.112l-93.432,15.568L261.4,405.76c-3.336-1.672-5.4-5.016-5.4-8.736v-2.048
			c0-3.72,2.072-7.064,5.4-8.728c1.992-0.992,4.232-1.272,6.376-0.824l72.536,37.672c0.84,0.44,1.752,0.72,2.696,0.84l61.28,7.664
			l6.056,6.056l11.312-11.312l-8-8c-1.256-1.256-2.896-2.064-4.664-2.28l-58.28-7.288l-0.592-2.968
			c-1.072-5.376,0.304-10.896,3.776-15.136C357.376,386.432,362.512,384,368,384z"/>
	</g>
</g>
<g>
	<g>
		<path d="M360,64H232c-4.416,0-8,3.584-8,8v32c0,4.416,3.584,8,8,8h128c4.416,0,8-3.584,8-8V72C368,67.584,364.416,64,360,64z
			 M352,96H240V80h112V96z"/>
	</g>
</g>
<g>
	<g>
		<rect x="280" y="32" width="88" height="16"/>
	</g>
</g>
<g>
	<g>
		<rect x="112" y="96" width="88" height="16"/>
	</g>
</g>
<g>
	<g>
		<rect x="112" y="128" width="16" height="16"/>
	</g>
</g>
<g>
	<g>
		<rect x="144" y="128" width="16" height="16"/>
	</g>
</g>
<g>
	<g>
		<rect x="176" y="128" width="16" height="16"/>
	</g>
</g>
<g>
	<g>
		<rect x="232" y="128" width="16" height="16"/>
	</g>
</g>
<g>
	<g>
		<rect x="264" y="128" width="16" height="16"/>
	</g>
</g>
<g>
	<g>
		<rect x="344" y="128" width="16" height="16"/>
	</g>
</g>
<g>
	<g>
		<rect x="312" y="128" width="16" height="16"/>
	</g>
</g>
<g>
	<g>
		<rect x="416" y="80" width="16" height="16"/>
	</g>
</g>
<g>
	<g>
		<rect x="448" y="80" width="16" height="16"/>
	</g>
</g>
<g>
	<g>
		<rect x="448" y="112" width="16" height="16"/>
	</g>
</g>
<g>
	<g>
		<rect x="448" y="144" width="16" height="16"/>
	</g>
</g>
<g>
	<g>
		<rect x="448" y="176" width="16" height="16"/>
	</g>
</g>
<g>
	<g>
		<rect x="448" y="208" width="16" height="16"/>
	</g>
</g>
<g>
	<g>
		<rect x="448" y="240" width="16" height="16"/>
	</g>
</g>
<g>
	<g>
		<rect x="448" y="272" width="16" height="16"/>
	</g>
</g>
<g>
	<g>
		<rect x="416" y="272" width="16" height="16"/>
	</g>
</g>
<g>
	<g>
		<rect x="48" y="80" width="16" height="16"/>
	</g>
</g>
<g>
	<g>
		<rect x="16" y="80" width="16" height="16"/>
	</g>
</g>
<g>
	<g>
		<rect x="16" y="112" width="16" height="16"/>
	</g>
</g>
<g>
	<g>
		<rect x="16" y="144" width="16" height="16"/>
	</g>
</g>
<g>
	<g>
		<rect x="16" y="176" width="16" height="16"/>
	</g>
</g>
<g>
	<g>
		<rect x="16" y="208" width="16" height="16"/>
	</g>
</g>
<g>
	<g>
		<rect x="16" y="240" width="16" height="16"/>
	</g>
</g>
<g>
</g>
<g>
</g>
<g>
</g>
<g>
</g>
<g>
</g>
<g>
</g>
<g>
</g>
<g>
</g>
<g>
</g>
<g>
</g>
<g>
</g>
<g>
</g>
<g>
</g>
<g>
</g>
<g>
</g>
</svg>
