<?xml version="1.0" encoding="utf-8"?>
<!-- Generator: Adobe Illustrator 21.0.2, SVG Export Plug-In . SVG Version: 6.00 Build 0)  -->
<svg version="1.1" id="Layer_1" xmlns="http://www.w3.org/2000/svg" xmlns:xlink="http://www.w3.org/1999/xlink" x="0px" y="0px"
	 viewBox="0 0 419.6 328" style="enable-background:new 0 0 419.6 328;" xml:space="preserve">
<style type="text/css">
	.st0{fill:#E2E7EA;}
	.st1{fill:#FF7800;}
</style>
<circle class="st0" cx="405" cy="313.4" r="14.6"/>
<circle class="st1" cx="326.6" cy="313.4" r="14.6"/>
<circle class="st0" cx="251" cy="313.4" r="14.6"/>
<circle class="st0" cx="173" cy="313.4" r="14.6"/>
<circle class="st0" cx="92.6" cy="313.4" r="14.6"/>
<circle class="st0" cx="14.6" cy="313.4" r="14.6"/>
<path class="st0" d="M403.9,271L403.9,271c-8,0-14.6-6.5-14.6-14.6V24.9c0-8,6.5-14.6,14.6-14.6l0,0c8,0,14.6,6.5,14.6,14.6v231.6
	C418.5,264.5,412,271,403.9,271z"/>
<path class="st1" d="M328.8,271h-2.2c-8,0-14.6-6.5-14.6-14.6V14.6c0-8,6.5-14.6,14.6-14.6h2.2c8,0,14.6,6.5,14.6,14.6v241.9
	C343.3,264.5,336.8,271,328.8,271z"/>
<path class="st0" d="M248.3,272.3L248.3,272.3c-8,0-14.6-6.5-14.6-14.6V64.9c0-8,6.5-14.6,14.6-14.6l0,0c8,0,14.6,6.5,14.6,14.6
	v192.9C262.8,265.8,256.3,272.3,248.3,272.3z"/>
<path class="st0" d="M171.6,272.3L171.6,272.3c-8,0-14.6-6.5-14.6-14.6V111.2c0-8,6.5-14.6,14.6-14.6l0,0c8,0,14.6,6.5,14.6,14.6
	v146.6C186.2,265.8,179.6,272.3,171.6,272.3z"/>
<path class="st0" d="M92.6,272.3L92.6,272.3c-8,0-14.6-6.5-14.6-14.6V133.9c0-8,6.5-14.6,14.6-14.6l0,0c8,0,14.6,6.5,14.6,14.6
	v123.9C107.1,265.8,100.6,272.3,92.6,272.3z"/>
<path class="st0" d="M14.6,272.3L14.6,272.3c-8,0-14.6-6.5-14.6-14.6v-88.6c0-8,6.5-14.6,14.6-14.6l0,0c8,0,14.6,6.5,14.6,14.6v88.6
	C29.1,265.8,22.6,272.3,14.6,272.3z"/>
</svg>
