<?xml version="1.0" encoding="iso-8859-1"?>
<!-- Generator: Adobe Illustrator 19.0.0, SVG Export Plug-In . SVG Version: 6.00 Build 0)  -->
<svg version="1.1" id="Capa_1" xmlns="http://www.w3.org/2000/svg" xmlns:xlink="http://www.w3.org/1999/xlink" x="0px" y="0px"
	 viewBox="0 0 480 480" style="enable-background:new 0 0 480 480;" xml:space="preserve">
<g>
	<g>
		<path d="M384,0c-13.232,0-24,10.768-24,24s10.768,24,24,24s24-10.768,24-24S397.232,0,384,0z M384,32c-4.408,0-8-3.584-8-8
			s3.592-8,8-8c4.408,0,8,3.584,8,8S388.408,32,384,32z"/>
	</g>
</g>
<g>
	<g>
		<rect x="348.114" y="48.001" transform="matrix(0.7071 -0.7071 0.7071 0.7071 82.2439 310.5568)" width="135.767" height="16"/>
	</g>
</g>
<g>
	<g>
		<path d="M448,64c-13.232,0-24,10.768-24,24s10.768,24,24,24s24-10.768,24-24S461.232,64,448,64z M448,96c-4.408,0-8-3.584-8-8
			s3.592-8,8-8c4.408,0,8,3.584,8,8S452.408,96,448,96z"/>
	</g>
</g>
<g>
	<g>
		<path d="M472,128h-48c-4.416,0-8,3.576-8,8v328h-40V200c0-4.424-3.584-8-8-8h-48c-4.416,0-8,3.576-8,8v264h-40V264
			c0-4.424-3.584-8-8-8h-48c-4.416,0-8,3.576-8,8v200h-40V328c0-4.424-3.584-8-8-8h-48c-4.416,0-8,3.576-8,8v136H64v-72
			c0-4.424-3.584-8-8-8H8c-4.416,0-8,3.576-8,8v72v8v8h8h48h56h48h56h48h56h48h56h48h8v-8v-8V136C480,131.576,476.416,128,472,128z
			 M48,464H16v-64h32V464z M152,464h-32V336h32V464z M256,464h-32V272h32V464z M360,464h-32V208h32V464z M464,464h-32V144h32V464z"
			/>
	</g>
</g>
<g>
	<g>
		<path d="M352,112h-48v16h28.688L240,220.688l-34.344-34.344c-3.128-3.128-8.184-3.128-11.312,0l-168,168l11.312,11.312
			L200,203.312l34.344,34.344c3.128,3.128,8.184,3.128,11.312,0L344,139.312V168h16v-48C360,115.576,356.416,112,352,112z"/>
	</g>
</g>
<g>
</g>
<g>
</g>
<g>
</g>
<g>
</g>
<g>
</g>
<g>
</g>
<g>
</g>
<g>
</g>
<g>
</g>
<g>
</g>
<g>
</g>
<g>
</g>
<g>
</g>
<g>
</g>
<g>
</g>
</svg>
