<?xml version="1.0" encoding="utf-8"?>
<!-- Generator: Adobe Illustrator 21.0.2, SVG Export Plug-In . SVG Version: 6.00 Build 0)  -->
<svg version="1.1" id="Layer_1" xmlns="http://www.w3.org/2000/svg" xmlns:xlink="http://www.w3.org/1999/xlink" x="0px" y="0px"
	 viewBox="0 0 419.6 275.4" style="enable-background:new 0 0 419.6 275.4;" xml:space="preserve">
<style type="text/css">
	.st0{fill:#E2E7EA;}
	.st1{fill:#FF7800;}
	.st2{fill:#FFFFFF;}
</style>
<path class="st0" d="M5.6,269.8L5.6,269.8c-5.1-6.2-4.7-15.1,1-19.8l164-135.7c5.7-4.7,14.5-3.6,19.7,2.7l0,0
	c5.1,6.2,4.7,15.1-1,19.8L25.2,272.5C19.5,277.2,10.8,276,5.6,269.8z"/>
<path class="st0" d="M226.3,160.1L226.3,160.1c-5.1-6.2-4.7-15,0.9-19.7L389.6,5.9c5.6-4.6,14.4-3.5,19.6,2.8l0,0
	c5.1,6.2,4.7,15-0.9,19.7L245.7,162.9C240.1,167.6,231.4,166.3,226.3,160.1z"/>
<circle class="st1" cx="318.8" cy="82.2" r="35"/>
<circle class="st2" cx="318.6" cy="82" r="14.6"/>
<path class="st0" d="M230.5,164.2l-49.6-28.6c-7.1-4.1-9.5-13.1-5.4-20.2l0,0c4.1-7.1,13.1-9.5,20.2-5.4l49.6,28.6
	c7.1,4.1,9.5,13.1,5.4,20.2l0,0C246.6,165.8,237.6,168.3,230.5,164.2z"/>
</svg>
