<?xml version="1.0" encoding="utf-8"?>
<!-- Generator: Adobe Illustrator 21.0.2, SVG Export Plug-In . SVG Version: 6.00 Build 0)  -->
<svg version="1.1" id="Layer_1" xmlns="http://www.w3.org/2000/svg" xmlns:xlink="http://www.w3.org/1999/xlink" x="0px" y="0px"
	 viewBox="0 0 487.8 512" style="enable-background:new 0 0 487.8 512;" xml:space="preserve">
<g>
	<g>
		<g>
			<path d="M76,32.5h64.5c4.5,0,8.1-3.6,8.1-8.1s-3.6-8.1-8.1-8.1H76c-4.5,0-8.1,3.6-8.1,8.1S71.5,32.5,76,32.5z"/>
			<path d="M480,224.9L327.1,72c-3.1-3.1-8.3-3.1-11.4,0c-3.1,3.1-3.1,8.3,0,11.4l152.9,152.9c4.2,4.2,4.2,11,0,15.2
				c-2,2-4.7,3.1-7.6,3.1s-5.6-1.1-7.6-3.1L413,211.1c0,0,0,0,0,0l-31.7-31.7L249.6,47.7c-1.7-1.7-3.9-2.4-6.1-2.3
				c-1.9,0.1-3.8,0.9-5.3,2.3L74.9,211.1c0,0,0,0,0,0l-40.4,40.4c-2,2-4.7,3.1-7.6,3.1c-2.9,0-5.6-1.1-7.6-3.1c-2-2-3.1-4.7-3.1-7.6
				s1.1-5.6,3.1-7.6l67-67c0,0,0,0,0,0l55.2-55.2c0,0,0,0,0,0l94.8-94.8c2-2,4.7-3.1,7.6-3.1c2.9,0,5.6,1.1,7.6,3.1l45.8,45.8
				c3.1,3.1,8.2,3.1,11.4,0c3.1-3.1,3.1-8.3,0-11.4L262.9,7.9c-10.5-10.5-27.5-10.5-38,0l-81.1,81.1V66.3c0-11.6-9.4-21-21-21H93.5
				c-11.6,0-21,9.4-21,21v93.9L7.9,224.9C2.8,230,0,236.7,0,243.9s2.8,13.9,7.9,19c5.1,5.1,11.8,7.9,19,7.9c7.2,0,13.9-2.8,19-7.9
				l26.7-26.7v222H58.8c-14.8,0-26.9,12.1-26.9,26.9S44,512,58.8,512h93.3c4.5,0,8.1-3.6,8.1-8.1s-3.6-8.1-8.1-8.1H58.8
				c-5.9,0-10.7-4.8-10.7-10.7s4.8-10.7,10.7-10.7h21.8h99.7h127.3h99.7h21.8c5.9,0,10.7,4.8,10.7,10.7s-4.8,10.7-10.7,10.7H177.9
				c-4.5,0-8.1,3.6-8.1,8.1s3.6,8.1,8.1,8.1h251.2c14.8,0,26.9-12.1,26.9-26.9s-12.1-26.9-26.9-26.9h-13.8V236.2l26.7,26.7
				c5.1,5.1,11.8,7.9,19,7.9c7.2,0,13.9-2.8,19-7.9C490.5,252.4,490.5,235.4,480,224.9z M88.7,66.3c0-2.7,2.2-4.8,4.8-4.8h29.4
				c2.7,0,4.8,2.2,4.8,4.8V105l-39.1,39.1L88.7,66.3L88.7,66.3z M299.5,458.3H188.3V296.2c0-2.7,2.2-4.8,4.8-4.8h101.5
				c2.7,0,4.8,2.2,4.8,4.8V458.3z M399.2,458.3L399.2,458.3h-83.5V296.2c0-11.6-9.4-21-21-21H193.2c-11.6,0-21,9.4-21,21v162.1H88.7
				V220.1L243.9,64.8l55.8,55.8c0,0,0,0,0,0l17.8,17.8c0,0,0,0,0,0l73.4,73.4l8.2,8.2L399.2,458.3L399.2,458.3z"/>
			<path d="M307.6,246.6H180.3c-4.5,0-8.1,3.6-8.1,8.1s3.6,8.1,8.1,8.1h127.3c4.5,0,8.1-3.6,8.1-8.1S312,246.6,307.6,246.6z"/>
			<path d="M307.6,218.4H180.3c-4.5,0-8.1,3.6-8.1,8.1s3.6,8.1,8.1,8.1h127.3c4.5,0,8.1-3.6,8.1-8.1S312,218.4,307.6,218.4z"/>
			<path d="M217.7,353.9c-11.3,0-20.4,9.2-20.4,20.4s9.2,20.4,20.4,20.4s20.4-9.2,20.4-20.4C238.1,363,228.9,353.9,217.7,353.9z
				 M217.7,378.6c-2.4,0-4.3-1.9-4.3-4.3s1.9-4.3,4.3-4.3s4.3,1.9,4.3,4.3S220,378.6,217.7,378.6z"/>
		</g>
	</g>
</g>
</svg>
