<?xml version="1.0" encoding="utf-8"?>
<!-- Generator: Adobe Illustrator 21.0.2, SVG Export Plug-In . SVG Version: 6.00 Build 0)  -->
<svg fill="#ff7800" version="1.1" id="Layer_1" xmlns="http://www.w3.org/2000/svg" xmlns:xlink="http://www.w3.org/1999/xlink" x="0px" y="0px"
	 viewBox="0 0 512 476" style="enable-background:new 0 0 512 476;" xml:space="preserve">
<g>
	<g>
		<path d="M365.7,65.6h-4c-5.6,0-10.2,4.6-10.2,10.2S356.1,86,361.7,86h4c5.6,0,10.2-4.6,10.2-10.2S371.3,65.6,365.7,65.6z"/>
	</g>
</g>
<g>
	<g>
		<path d="M315.1,65.6H149c-5.6,0-10.2,4.6-10.2,10.2S143.4,86,149,86h166c5.6,0,10.2-4.6,10.2-10.2S320.7,65.6,315.1,65.6z"/>
	</g>
</g>
<g>
	<g>
		<path d="M365.7,126.1H149c-5.6,0-10.2,4.6-10.2,10.2s4.6,10.2,10.2,10.2h216.7c5.6,0,10.2-4.6,10.2-10.2S371.3,126.1,365.7,126.1z
			"/>
	</g>
</g>
<g>
	<g>
		<path d="M365.7,186.5H149c-5.6,0-10.2,4.6-10.2,10.2s4.6,10.2,10.2,10.2h216.7c5.6,0,10.2-4.6,10.2-10.2S371.3,186.5,365.7,186.5z
			"/>
	</g>
</g>
<g>
	<g>
		<path d="M512,194c0-3.2-1.5-6.3-4.1-8.2l-64-47.7V10c0-5.6-4.6-10.2-10.2-10.2H81c-5.6,0-10.2,4.6-10.2,10.2v126.1L4.1,185.9
			c-2.6,1.9-4.1,5-4.1,8.2c0,0,0,0,0,0v272c0,5.6,4.6,10.2,10.2,10.2h491.6c5.6,0,10.2-4.6,10.2-10.2L512,194L512,194z M443.9,163.6
			l39.4,29.3l-39.4,22.8V163.6z M91.2,20.2h332.2v207.4L256,324.5L91.2,229.1V20.2z M70.8,161.6v55.7L28.7,193L70.8,161.6z
			 M20.4,211.7l144.8,83.8L20.4,440.3V211.7z M33.8,455.8l149.7-149.7l67.4,39c1.6,0.9,3.3,1.4,5,1.4c0,0,0.1,0,0.1,0
			c0,0,0.1,0,0.1,0c1.7,0,3.5-0.5,5-1.4l67.4-39l149.7,149.7H33.8z M491.6,440.3L346.8,295.5l144.8-83.8V440.3z"/>
	</g>
</g>
</svg>
