<?xml version="1.0" encoding="utf-8"?>
<!-- Generator: Adobe Illustrator 21.0.2, SVG Export Plug-In . SVG Version: 6.00 Build 0)  -->
<svg version="1.1" id="Layer_1" xmlns="http://www.w3.org/2000/svg" xmlns:xlink="http://www.w3.org/1999/xlink" x="0px" y="0px"
	 viewBox="0 0 419.6 412" style="enable-background:new 0 0 419.6 412;" xml:space="preserve">
<style type="text/css">
	.st0{fill:none;stroke:#FF7800;stroke-width:50;stroke-miterlimit:10;}
	.st1{fill:none;}
	.st2{fill:#ECEFF1;}
	.st3{fill:#FFFFFF;}
	.st4{fill:#FF7800;}
	.st5{enable-background:new    ;}
	.st6{fill:#434B52;}
</style>
<path class="st0" d="M384.7,204.8c0,99-80.3,179.3-179.3,179.3c-27.2,0-52.9-6-76-16.9C68.3,338.7,26,276.7,26,204.8
	c0-99,80.3-179.3,179.3-179.3c33.7,0,65.2,9.3,92.1,25.4C349.7,82.3,384.7,139.5,384.7,204.8z"/>
<g>
	<path class="st1" d="M338.7,39.5l-3.8,6.5c46.5,37.6,76.3,95.1,76.3,159.6c0,113.3-91.8,205.1-205.1,205.1
		c-26,0-50.9-4.9-73.9-13.7l-1.5,2.6L168,412l209-1.2L418,237l7.8-154.7L338.7,39.5z"/>
	<path class="st2" d="M411.2,205.6c0-64.5-29.8-122-76.3-159.6l-26.3,45.5C339,119.6,358,159.7,358,204.4
		c0,84.9-68.8,153.7-153.7,153.7c-15.9,0-31.2-2.4-45.6-6.9L132.3,397c22.9,8.8,47.8,13.7,73.9,13.7
		C319.4,410.8,411.2,318.9,411.2,205.6z"/>
	<path class="st3" d="M358.1,204.3c0-44.6-19-84.8-49.4-112.9L158.8,351.1c14.4,4.5,29.7,6.9,45.6,6.9
		C289.3,358,358.1,289.2,358.1,204.3z"/>
</g>
<circle class="st4" cx="320.8" cy="68.3" r="24.8"/>
<circle class="st4" cx="147.8" cy="375" r="24.8"/>
<circle class="st3" cx="353.5" cy="311.5" r="75.5"/>
<circle class="st4" cx="353.5" cy="311.5" r="62.5"/>
<g class="st5">
	<path class="st6" d="M174.7,249h-60.6v-8.4l32-35.5c4.7-5.4,8-9.7,9.8-13.1c1.8-3.4,2.7-6.8,2.7-10.4c0-4.8-1.5-8.8-4.4-11.9
		c-2.9-3.1-6.8-4.6-11.7-4.6c-5.8,0-10.4,1.7-13.6,5c-3.2,3.3-4.9,7.9-4.9,13.9h-11.7c0-8.5,2.7-15.4,8.2-20.6
		c5.5-5.2,12.8-7.9,22-7.9c8.6,0,15.4,2.3,20.4,6.8c5,4.5,7.5,10.5,7.5,18c0,9.1-5.8,19.9-17.4,32.5l-24.8,26.9h46.4V249z"/>
	<path class="st6" d="M192.6,202.7l4.7-46.1h47.4v10.9h-37.4l-2.8,25.2c4.5-2.7,9.7-4,15.4-4c8.4,0,15.1,2.8,20.1,8.3
		c5,5.6,7.4,13.1,7.4,22.6c0,9.5-2.6,17-7.7,22.5c-5.1,5.5-12.3,8.2-21.6,8.2c-8.2,0-14.8-2.3-20-6.8c-5.2-4.5-8.1-10.8-8.8-18.8
		h11.1c0.7,5.3,2.6,9.3,5.6,12s7.1,4,12.1,4c5.5,0,9.7-1.9,12.9-5.6c3.1-3.7,4.7-8.9,4.7-15.4c0-6.2-1.7-11.1-5-14.9
		c-3.4-3.7-7.8-5.6-13.4-5.6c-5.1,0-9.1,1.1-12.1,3.4l-3.1,2.5L192.6,202.7z"/>
</g>
<g class="st5">
	<path class="st3" d="M328.6,336h-6.5v-43.3l-13.1,4.8v-5.9l18.6-7h1V336z"/>
	<path class="st3" d="M348.5,332.6c0-1.1,0.3-2.1,1-2.8s1.7-1.1,3-1.1s2.3,0.4,3,1.1s1,1.7,1,2.8c0,1.1-0.3,2-1,2.7s-1.7,1.1-3,1.1
		s-2.3-0.4-3-1.1S348.5,333.7,348.5,332.6z"/>
	<path class="st3" d="M400.2,336h-33.5v-4.7l17.7-19.7c2.6-3,4.4-5.4,5.4-7.3s1.5-3.8,1.5-5.8c0-2.7-0.8-4.9-2.4-6.6
		s-3.8-2.6-6.5-2.6c-3.2,0-5.7,0.9-7.5,2.8s-2.7,4.4-2.7,7.7h-6.5c0-4.7,1.5-8.5,4.6-11.4s7.1-4.4,12.2-4.4c4.8,0,8.5,1.2,11.3,3.7
		s4.1,5.8,4.1,10c0,5-3.2,11-9.6,18l-13.7,14.9h25.7V336z"/>
</g>
<g class="st5">
	<path class="st6" d="M260.7,163.7c0-3.1,1-5.6,2.9-7.6c2-2,4.5-3,7.5-3c3.1,0,5.6,1,7.6,3s2.9,4.6,2.9,7.8v2.5c0,3.1-1,5.6-2.9,7.6
		c-2,2-4.4,2.9-7.5,2.9c-3,0-5.6-1-7.6-2.9c-2-2-3-4.6-3-7.8V163.7z M265.5,166.3c0,1.8,0.5,3.3,1.5,4.5s2.4,1.8,4.1,1.8
		c1.7,0,3-0.6,4-1.7c1-1.2,1.5-2.7,1.5-4.7v-2.6c0-1.8-0.5-3.3-1.5-4.5s-2.4-1.8-4.1-1.8s-3.1,0.6-4.1,1.8s-1.5,2.8-1.5,4.7V166.3z
		 M272.7,201.1l-3.7-2.3l25-40l3.7,2.3L272.7,201.1z M285.6,192.4c0-3.1,1-5.6,2.9-7.6c2-2,4.5-3,7.5-3s5.6,1,7.6,3s3,4.6,3,7.8v2.5
		c0,3.1-1,5.6-2.9,7.6s-4.5,3-7.5,3s-5.6-1-7.6-2.9s-3-4.6-3-7.8V192.4z M290.5,195.2c0,1.9,0.5,3.4,1.5,4.6s2.4,1.8,4.1,1.8
		c1.7,0,3-0.6,4-1.7c1-1.2,1.5-2.7,1.5-4.7v-2.6c0-1.9-0.5-3.4-1.5-4.5s-2.4-1.8-4.1-1.8c-1.7,0-3,0.6-4.1,1.7
		c-1,1.2-1.6,2.7-1.6,4.7V195.2z"/>
</g>
</svg>
