<?xml version="1.0" encoding="utf-8"?>
<!-- Generator: Adobe Illustrator 21.0.2, SVG Export Plug-In . SVG Version: 6.00 Build 0)  -->
<svg version="1.1" id="Layer_1" xmlns="http://www.w3.org/2000/svg" xmlns:xlink="http://www.w3.org/1999/xlink" x="0px" y="0px"
	 viewBox="0 0 419.6 412" style="enable-background:new 0 0 419.6 412;" xml:space="preserve">
<style type="text/css">
	.st0{fill:none;stroke:#FF7800;stroke-width:50;stroke-miterlimit:10;}
	.st1{fill:none;}
	.st2{fill:#ECEFF1;}
	.st3{fill:#FFFFFF;}
	.st4{fill:#FF7800;}
	.st5{enable-background:new    ;}
	.st6{fill:#434B52;}
</style>
<path class="st0" d="M384.7,204.8c0,99-80.3,179.3-179.3,179.3c-27.2,0-52.9-6-76-16.9C68.3,338.7,26,276.7,26,204.8
	c0-99,80.3-179.3,179.3-179.3c33.7,0,65.2,9.3,92.1,25.4C349.7,82.3,384.7,139.5,384.7,204.8z"/>
<g>
	<path class="st1" d="M338.7,39.5l-3.8,6.5c46.5,37.6,76.3,95.1,76.3,159.6c0,113.3-91.8,205.1-205.1,205.1
		c-26,0-50.9-4.9-73.9-13.7l-1.5,2.6L168,412l209-1.2L418,237l7.8-154.7L338.7,39.5z"/>
	<path class="st2" d="M411.2,205.6c0-64.5-29.8-122-76.3-159.6l-26.3,45.5C339,119.6,358,159.7,358,204.4
		c0,84.9-68.8,153.7-153.7,153.7c-15.9,0-31.2-2.4-45.6-6.9L132.3,397c22.9,8.8,47.8,13.7,73.9,13.7
		C319.4,410.8,411.2,318.9,411.2,205.6z"/>
	<path class="st3" d="M358.1,204.3c0-44.6-19-84.8-49.4-112.9L158.8,351.1c14.4,4.5,29.7,6.9,45.6,6.9
		C289.3,358,358.1,289.2,358.1,204.3z"/>
</g>
<circle class="st4" cx="320.8" cy="68.3" r="24.8"/>
<circle class="st4" cx="147.8" cy="375" r="24.8"/>
<circle class="st3" cx="353.5" cy="311.5" r="75.5"/>
<circle class="st4" cx="353.5" cy="311.5" r="62.5"/>
<g class="st5">
	<path class="st6" d="M218.8,249H207v-78.3l-23.7,8.7v-10.7l33.6-12.6h1.8V249z"/>
</g>
<g class="st5">
	<path class="st3" d="M371.3,288.5L350.1,336h-6.8l21.1-45.8h-27.7v-5.3h34.6V288.5z"/>
</g>
</svg>
