<?xml version="1.0" encoding="utf-8"?>
<!-- Generator: Adobe Illustrator 21.0.2, SVG Export Plug-In . SVG Version: 6.00 Build 0)  -->
<svg version="1.1" id="Layer_1" xmlns="http://www.w3.org/2000/svg" xmlns:xlink="http://www.w3.org/1999/xlink" x="0px" y="0px"
	 viewBox="0 0 503.3 512" style="enable-background:new 0 0 503.3 512;" xml:space="preserve">
<g>
	<g>
		<path d="M341.4,219.8c-3.2-3.2-8.3-3.2-11.5,0L280.7,269c-3.2,3.2-3.2,8.3,0,11.5c8.4,8.4,19.4,12.6,30.4,12.6s22-4.2,30.4-12.6
			C358.1,263.8,358.1,236.5,341.4,219.8z M329.9,269c-8.4,8.4-21,10-31,4.9l35.9-35.9C339.9,248,338.2,260.6,329.9,269z"/>
	</g>
</g>
<g>
	<g>
		<path d="M222.6,269l-49.2-49.2c-3.2-3.2-8.3-3.2-11.5,0c-16.7,16.7-16.7,44,0,60.7c8.4,8.4,19.4,12.6,30.4,12.6s22-4.2,30.4-12.6
			C225.8,277.3,225.8,272.2,222.6,269z M173.4,269c-8.4-8.4-10-21-4.9-31l35.9,35.9C194.4,279,181.8,277.4,173.4,269z"/>
	</g>
</g>
<g>
	<g>
		<path d="M485.7,410c0.1-0.6,0.2-1.2,0.2-1.8v-60.9c0-4.5-3.6-8.2-8.2-8.2h-62c10.4-21.5,16.6-45.4,17.8-70.7h44.2
			c4.5,0,8.2-3.6,8.2-8.2v-62.8c10.1-3.4,17.4-13,17.4-24.2c0-14.1-11.5-25.5-25.5-25.5s-25.5,11.5-25.5,25.5
			c0,11.2,7.3,20.8,17.4,24.2v54.6h-36.1c-0.7-15.3-3.2-30.3-7.6-44.8c-1.3-4.3-5.9-6.7-10.2-5.4c-4.3,1.3-6.7,5.9-5.4,10.2
			c4.7,15.6,7.1,31.8,7.1,48.3c0,91.4-74.4,165.8-165.8,165.8S85.9,351.8,85.9,260.3S160.2,94.6,251.7,94.6
			c36.3,0,70.8,11.7,99,32.8c0.3,0.3,0.7,0.6,1.1,0.8c15,11.4,28.1,25.3,38.8,41.6c2.5,3.8,7.5,4.8,11.3,2.4
			c3.8-2.5,4.8-7.5,2.4-11.3c-7.6-11.6-16.3-22.1-26-31.5h47.4c4.5,0,8.2-3.7,8.2-8.2V75.8c10.1-3.4,17.4-13,17.4-24.2
			c0-14.1-11.5-25.5-25.5-25.5S400,37.5,400,51.6c0,11.2,7.3,20.8,17.4,24.2v37.2h-58.7c-28.5-20.8-62.8-33-99-34.6V49.8
			c10.1-3.4,17.4-13,17.4-24.2c0-14.1-11.5-25.5-25.5-25.5s-25.5,11.5-25.5,25.5c0,11.2,7.3,20.8,17.4,24.2v28.7
			c-54.6,2.4-103.1,29-134.9,69.4H51.1V84.5c10.1-3.4,17.4-13,17.4-24.2c0-14.1-11.5-25.5-25.5-25.5S17.4,46.2,17.4,60.3
			c0,11.2,7.3,20.8,17.4,24.2V156c0,4.5,3.7,8.2,8.2,8.2h54.2c-17.5,27.9-27.6,60.9-27.6,96.2c0,15.2,1.9,29.9,5.4,44H25.5
			c-4.5,0-8.2,3.6-8.2,8.2v54.1C7.3,370,0,379.6,0,390.8c0,14.1,11.5,25.5,25.5,25.5s25.5-11.5,25.5-25.5c0-11.2-7.3-20.8-17.4-24.2
			v-45.9h46.2c18.3,51.9,59.5,93.2,111.5,111.5v46.2h-54.6c-3.4-10.1-13-17.4-24.2-17.4c-14.1,0-25.5,11.5-25.5,25.5
			S98.4,512,112.5,512c11.2,0,20.8-7.3,24.2-17.4h62.8c4.5,0,8.2-3.6,8.2-8.2V437c14.1,3.5,28.8,5.4,44,5.4c28.2,0,55-6.5,78.8-18
			v37.8c-10.1,3.4-17.4,13-17.4,24.2c0,14.1,11.5,25.5,25.5,25.5s25.5-11.5,25.5-25.5c0-11.2-7.3-20.8-17.4-24.2v-46.5
			c0-0.1,0-0.2,0-0.2c24.5-15.1,45.2-35.7,60.2-60.3c0.5,0.1,1.1,0.2,1.6,0.2h61.1v52.7c0,0.6,0.1,1.2,0.2,1.8
			c-10.2,3.4-17.6,13-17.6,24.3c0,14.1,11.5,25.5,25.5,25.5s25.5-11.5,25.5-25.5C503.3,423,495.9,413.4,485.7,410z M468.5,173.4
			c0-5.1,4.1-9.2,9.2-9.2s9.2,4.1,9.2,9.2s-4.1,9.2-9.2,9.2C472.7,182.6,468.5,178.5,468.5,173.4z M416.3,51.6
			c0-5.1,4.1-9.2,9.2-9.2s9.2,4.1,9.2,9.2s-4.1,9.2-9.2,9.2C420.5,60.9,416.3,56.7,416.3,51.6z M242.4,25.5c0-5.1,4.1-9.2,9.2-9.2
			s9.2,4.1,9.2,9.2s-4.1,9.2-9.2,9.2S242.4,30.6,242.4,25.5z M42.9,69.6c-5.1,0-9.2-4.1-9.2-9.2s4.1-9.2,9.2-9.2s9.2,4.1,9.2,9.2
			C52.2,65.4,48,69.6,42.9,69.6z M34.8,390.8c0,5.1-4.1,9.2-9.2,9.2s-9.2-4.1-9.2-9.2s4.1-9.2,9.2-9.2
			C30.6,381.6,34.8,385.7,34.8,390.8z M112.5,495.7c-5.1,0-9.2-4.1-9.2-9.2s4.1-9.2,9.2-9.2s9.2,4.1,9.2,9.2
			S117.6,495.7,112.5,495.7z M347.9,486.5c0,5.1-4.1,9.2-9.2,9.2s-9.2-4.1-9.2-9.2s4.1-9.2,9.2-9.2S347.9,481.4,347.9,486.5z
			 M477.8,443.5c-5.1,0-9.2-4.1-9.2-9.2s4.1-9.2,9.2-9.2s9.2,4.1,9.2,9.2S482.9,443.5,477.8,443.5z"/>
	</g>
</g>
</svg>
